<svg width="1501" height="800" viewBox="0 0 1501 800" fill="none" xmlns="http://www.w3.org/2000/svg">
<rect x="0.013916" width="1500.99" height="800" fill="#FFDA1A"/>
<ellipse cx="739.855" cy="394.477" rx="690.789" ry="295.858" fill="#0058A3" stroke="#004580" stroke-width="12"/>
<path d="M258.861 255H334.661L443.461 519H360.861L344.061 473.2H249.861L232.861 519H150.061L258.861 255ZM275.861 406H318.061L297.261 347.8H296.661L275.861 406ZM458.295 255H535.895V451.8H626.095V519H458.295V255ZM745.783 255H821.583L930.383 519H847.783L830.983 473.2H736.783L719.783 519H636.983L745.783 255ZM762.783 406H804.983L784.183 347.8H783.583L762.783 406ZM944.017 255H1021.42V519H944.017V255ZM1128.38 325.4L1134.18 326.4V519H1056.78V255H1161.38L1247.58 447L1241.78 448.2V255H1319.18V519H1213.98L1128.38 325.4Z" fill="#FFDA1A"/>
</svg>
