<svg width="1500" height="800" viewBox="0 0 1500 800" fill="none" xmlns="http://www.w3.org/2000/svg">
<rect width="1500" height="800" fill="#0058A3"/>
<ellipse cx="750" cy="400" rx="700" ry="300" fill="#FFDA1A" stroke="#004580" stroke-width="12"/>
<path d="M257.861 263H333.661L442.461 527H359.861L343.061 481.2H248.861L231.861 527H149.061L257.861 263ZM274.861 414H317.061L296.261 355.8H295.661L274.861 414ZM457.295 263H534.895V459.8H625.095V527H457.295V263ZM744.783 263H820.583L929.383 527H846.783L829.983 481.2H735.783L718.783 527H635.983L744.783 263ZM761.783 414H803.983L783.183 355.8H782.583L761.783 414ZM943.017 263H1020.42V527H943.017V263ZM1127.38 333.4L1133.18 334.4V527H1055.78V263H1160.38L1246.58 455L1240.78 456.2V263H1318.18V527H1212.98L1127.38 333.4Z" fill="#0058A3"/>
</svg>
